<?xml version="1.0" encoding="UTF-8" standalone="no"?>
<svg
   width="40"
   height="40"
   viewBox="0 0 40 40"
   version="1.1"
   id="svg2"
   sodipodi:docname="phone.svg"
   inkscape:version="1.4.2 (ebf0e940d0, 2025-05-08)"
   xmlns:inkscape="http://www.inkscape.org/namespaces/inkscape"
   xmlns:sodipodi="http://sodipodi.sourceforge.net/DTD/sodipodi-0.dtd"
   xmlns="http://www.w3.org/2000/svg"
   xmlns:svg="http://www.w3.org/2000/svg">
  <defs
     id="defs2" />
  <sodipodi:namedview
     id="namedview2"
     pagecolor="#ffffff"
     bordercolor="#000000"
     borderopacity="0.25"
     inkscape:showpageshadow="2"
     inkscape:pageopacity="0.0"
     inkscape:pagecheckerboard="0"
     inkscape:deskcolor="#d1d1d1"
     inkscape:zoom="16.9375"
     inkscape:cx="24.02952"
     inkscape:cy="24.059041"
     inkscape:window-width="888"
     inkscape:window-height="477"
     inkscape:window-x="0"
     inkscape:window-y="0"
     inkscape:window-maximized="0"
     inkscape:current-layer="svg2" />
  <path
     d="M 0,0 H 48 V 48 H 0 Z"
     fill="none"
     id="path1" />
  <path
     d="m 9.25,17.59 c 2.88,5.66 7.51,10.29 13.18,13.17 l 4.4,-4.41 C 27.38,25.8 28.17,25.64 28.86,25.86 31.1,26.6 33.51,27 36,27 c 1.11,0 2,0.89 2,2 v 7 c 0,1.11 -0.89,2 -2,2 C 17.22,38 2,22.78 2,4 2,2.89 2.9,2 4,2 h 7 c 1.11,0 2,0.89 2,2 0,2.49 0.4,4.9 1.14,7.14 0.22,0.69 0.06,1.48 -0.49,2.03 z"
     id="path2"
     style="fill-opacity:1;fill:#d20f39" />
</svg>
